<svg viewBox="0 0 24 24" xmlns="http://www.w3.org/2000/svg"><path d="M4 7H2V4a2 2 0 0 1 2-2h3v2H4ZM22 7h-2V4h-3V2h3a2 2 0 0 1 2 2ZM7 22H4a2 2 0 0 1-2-2v-3h2v3h3ZM20 22h-3v-2h3v-3h2v3a2 2 0 0 1-2 2ZM8 9a1 1 0 0 1-.71-.29l-1-1a1 1 0 0 1 1.42-1.42l1 1a1 1 0 0 1 0 1.42A1 1 0 0 1 8 9ZM16 9a1 1 0 0 1-.71-.29 1 1 0 0 1 0-1.42l1-1a1 1 0 1 1 1.42 1.42l-1 1A1 1 0 0 1 16 9ZM7 18a1 1 0 0 1-.71-.29 1 1 0 0 1 0-1.42l1-1a1 1 0 0 1 1.42 1.42l-1 1A1 1 0 0 1 7 18ZM17 18a1 1 0 0 1-.71-.29l-1-1a1 1 0 0 1 1.42-1.42l1 1a1 1 0 0 1 0 1.42A1 1 0 0 1 17 18Z" fill="#000000" class="fill-464646"></path></svg>