<svg width="201" height="148" viewBox="0 0 201 148" fill="none" xmlns="http://www.w3.org/2000/svg">
<path fill-rule="evenodd" clip-rule="evenodd" d="M198.91 105.668C198.476 105.524 197.092 106.263 195.833 107.311C193.84 108.972 193.633 109.581 194.218 112.059C194.588 113.622 194.634 114.96 194.321 115.035C194.008 115.108 193.838 115.534 193.944 115.98C194.049 116.427 193.698 117.5 193.162 118.365C192.252 119.838 192.277 119.934 193.554 119.88C195.333 119.806 195.19 122.564 193.266 125.446C192.498 126.596 191.984 128.024 192.125 128.618C192.265 129.212 191.968 130.243 191.465 130.91C190.289 132.468 190.712 134.289 192.17 133.944C192.813 133.792 192.135 135.498 190.59 137.918C187.815 142.265 186.505 143.405 186.802 141.214C186.919 140.353 186.481 140.089 185.371 140.351C184.492 140.559 183.676 140.32 183.558 139.82C183.391 139.113 183.188 139.161 182.648 140.035C182.265 140.654 181.44 141.281 180.814 141.429C179.929 141.638 179.831 141.447 180.372 140.573C181.351 138.99 180.645 136.668 179.284 136.99C178.659 137.138 178.068 136.928 177.973 136.524C177.878 136.121 178.347 135.865 179.017 135.955C179.687 136.045 181.145 135.43 182.256 134.588C184.825 132.641 185.031 129.371 182.658 128.208C181.042 127.416 181.02 127.328 182.036 125.71C182.615 124.786 183.466 124.156 183.926 124.31C185.392 124.796 184.425 122.902 182.379 121.275C181.294 120.412 180.336 119.412 180.251 119.051C180.166 118.691 180.779 118.235 181.613 118.037C182.906 117.732 183.011 117.173 182.325 114.269C181.882 112.393 181.259 110.92 180.943 110.995C180.626 111.07 179.748 110.52 178.993 109.772C177.99 108.781 177.907 108.509 178.684 108.767C179.502 109.039 179.425 108.377 178.359 105.928C177.593 104.171 176.612 100.927 176.178 98.72C175.705 96.3123 175.069 94.7818 174.587 94.8957C174.146 94.9999 173.629 94.4237 173.438 93.6144C173.246 92.8052 172.693 92.0112 172.207 91.85C171.721 91.688 171.444 91.1925 171.593 90.7477C171.741 90.3031 171.481 90.0294 171.014 90.1396C170.514 90.2578 170.326 89.8919 170.556 89.2479C171.213 87.406 170.142 84.4443 168.433 83.3793C167.472 82.7802 166.888 81.7973 167 80.9666C167.14 79.9407 166.91 79.7559 166.144 80.2777C165.348 80.8203 165.077 80.5474 165.017 79.1384C164.966 77.9702 164.198 76.7925 162.937 75.952C161.838 75.2182 160.783 73.9672 160.595 73.1723C160.408 72.3775 159.282 70.0113 158.094 67.9142C156.594 65.2652 155.544 64.1892 154.658 64.3907C153.704 64.6067 153.591 64.4653 154.213 63.8295C155.198 62.8204 153.552 59.9885 151.344 58.8942C150.573 58.5124 150.011 57.689 150.096 57.0642C150.181 56.4401 148.771 55.0163 146.963 53.9011C144.873 52.6126 143.688 51.3452 143.711 50.4231C143.729 49.6249 142.866 48.3872 141.794 47.671C140.72 46.9551 139.733 45.9114 139.601 45.3522C139.298 44.0716 131.478 36.5168 128.537 34.6644C127.325 33.9004 126.264 32.9816 126.178 32.6217C126.093 32.2617 125.271 31.5025 124.349 30.9339C123.428 30.3659 121.408 28.8631 119.86 27.5944C118.313 26.3265 116.414 25.4375 115.642 25.6199C114.748 25.8313 114.296 25.53 114.397 24.7887C114.602 23.2695 103.525 16.2668 99.938 15.6489C98.3949 15.3832 97.0928 14.6261 96.9198 13.8941C96.536 12.2702 93.228 10.9159 90.9574 11.4526C90.0076 11.6771 89.1483 11.5154 89.0483 11.0926C88.7129 9.67331 82.9009 7.00747 80.3507 7.10379C78.962 7.156 77.5122 6.73941 77.1288 6.17798C76.6237 5.43728 75.8405 5.44159 74.2747 6.19493C72.4966 7.04966 72.1482 7.0024 72.2936 5.92633C72.4079 5.08162 72.054 4.71963 71.2893 4.90039C70.6391 5.05406 69.7218 4.76525 69.2495 4.25841C68.7774 3.75233 67.6804 3.38117 66.8119 3.43445C65.9433 3.48773 64.6805 3.21175 64.0067 2.82137C63.3319 2.43041 62.2921 2.22655 61.6965 2.36732C61.1002 2.50826 60.527 2.26212 60.4228 1.82111C60.3155 1.36722 59.8822 1.37442 59.4252 1.83688C57.9263 3.35449 54.1554 3.0441 47.7839 0.878526C46.1838 0.334256 43.6909 0.317032 41.353 0.833627C39.0853 1.33524 36.2413 1.3338 34.3466 0.831152C30.8212 -0.10453 26.9599 0.528117 24.0105 2.52381C22.6598 3.43833 21.944 3.60912 21.6252 3.09402C21.3066 2.57967 20.7751 2.70689 19.855 3.51804C18.9192 4.34409 18.1933 4.50607 17.3341 4.08029C16.4367 3.63553 15.9088 3.83551 15.2754 4.85973C14.6389 5.88787 14.1527 6.07081 13.3584 5.58088C12.5632 5.09038 12.347 5.15187 12.5059 5.82399C12.623 6.31956 11.4047 7.2652 9.79868 7.92643C8.03719 8.65162 6.97616 9.54088 7.12446 10.1683C7.29622 10.895 6.34373 11.4505 3.95627 12.0149C1.20162 12.666 0.607455 13.0768 0.880074 14.1421C1.35101 15.9854 3.90832 18.034 4.03141 16.6672C4.08957 16.0254 5.20851 15.4489 6.95956 15.1574C8.51867 14.8977 9.71119 14.3342 9.60946 13.9038C9.35996 12.8482 15.6629 11.4232 18.2895 11.9417C19.9667 12.2733 20.8466 11.9933 22.5928 10.5733C24.0845 9.36061 25.0093 9.01 25.479 9.47903C25.8595 9.85874 26.4598 9.88008 26.8142 9.52587C27.1681 9.1726 28.9575 9.4537 30.7909 10.1509C33.6119 11.2243 34.3786 11.2214 35.7836 10.1333C37.1667 9.06147 37.4159 9.05138 37.2775 10.0722C37.1263 11.1848 39.0732 11.888 41.5066 11.5992C41.9351 11.5483 43.34 11.6731 44.6283 11.8775C45.9166 12.0818 47.4322 12.1396 47.9966 12.0062C48.5603 11.8729 49.2961 12.1495 49.6309 12.62C50.0979 13.2777 50.3392 13.2311 50.6705 12.4199C50.9773 11.6673 52.0181 11.9429 54.2879 13.3786C56.4552 14.7497 57.8835 15.1498 58.7523 14.63C59.5102 14.1764 60.8202 14.3165 61.9753 14.9739C65.0275 16.7103 67.9962 16.2903 69.0838 13.9682C69.8744 12.2803 70.0501 12.19 70.3341 13.327C70.5155 14.0538 71.1831 14.5265 71.8166 14.3767C72.667 14.1757 72.9619 14.6301 72.9411 16.1111C72.9237 17.329 73.2519 18.0771 73.7761 18.014C74.2505 17.957 75.0005 17.9142 75.4425 17.9201C75.8845 17.9261 76.5974 17.892 77.027 17.8456C77.4566 17.7993 77.9289 18.2725 78.0767 18.8976C78.2244 19.5228 78.7072 19.9487 79.1487 19.8444C79.5903 19.74 79.6879 19.3905 79.3648 19.0676C79.0412 18.7457 79.4777 18.4977 80.3331 18.5179C81.1894 18.5379 81.8448 18.9791 81.7906 19.4991C81.6651 20.6897 83.881 22.5478 85.393 22.5192C86.0224 22.5081 87.1502 23.0128 87.8994 23.6406C88.8806 24.464 89.7715 24.519 91.0889 23.8364C92.5877 23.0605 92.8057 23.1154 92.2969 24.1381C91.8057 25.1271 92.811 26.1504 97.1248 29.056C100.121 31.0744 102.998 32.6218 103.519 32.4939C104.039 32.3669 104.531 32.5372 104.61 32.8736C104.84 33.8481 112.979 39.0507 113.924 38.8273C114.395 38.7159 115.698 39.1905 116.82 39.8823C118.169 40.7147 118.413 41.0794 117.541 40.9623C115.19 40.6452 115.87 42.8438 118.708 44.7293C120.23 45.7408 121.999 47.2717 122.639 48.131C124.362 50.4465 126.277 52.2268 127.51 52.6578C128.11 52.868 128.739 53.6194 128.907 54.3278C129.075 55.0362 130.3 56.4045 131.628 57.3697C132.958 58.334 134.193 59.7518 134.375 60.5209C134.557 61.2893 135.217 61.7971 135.843 61.6492C136.562 61.4792 137.152 62.1039 137.446 63.3473C137.702 64.4286 138.635 66.0987 139.52 67.0576C140.404 68.0167 142.184 70.2612 143.474 72.0468C144.764 73.8324 146.174 75.2091 146.605 75.107C147.038 75.0048 147.544 75.5669 147.73 76.3557C147.917 77.1445 148.621 77.8645 149.296 77.9553C149.971 78.0462 150.455 78.6287 150.37 79.2496C150.286 79.8703 150.794 81.2281 151.499 82.2672C152.513 83.7636 153.113 83.9842 154.386 83.3297C155.27 82.8761 155.611 82.8008 155.147 83.1635C154.137 83.9503 154.607 86.5179 155.836 86.9266C156.314 87.0856 156.909 87.9562 157.158 88.8616C157.406 89.767 157.682 90.0411 157.769 89.4701C157.99 88.0248 159.262 87.8642 159.587 89.2403C159.735 89.8654 160.187 90.2987 160.591 90.2031C160.995 90.1077 161.25 90.5875 161.158 91.2693C160.96 92.7273 158.971 93.4104 158.667 92.1245C158.552 91.6388 158.286 91.5192 158.075 91.8596C157.864 92.1997 158.474 93.0158 159.429 93.6734C160.412 94.3491 160.786 94.9576 160.289 95.0749C159.216 95.3286 159.773 98.1124 160.978 98.5125C161.456 98.6715 162.003 99.463 162.195 100.272C162.451 101.357 163.094 101.63 164.643 101.31L166.743 100.877L164.938 102.068C163.484 103.028 163.294 103.618 163.96 105.102C164.413 106.116 165.292 107.013 165.912 107.097C166.532 107.18 166.924 107.59 166.785 108.008C166.646 108.426 167.064 109.37 167.714 110.105C168.525 111.022 168.647 111.501 168.102 111.63C167.12 111.862 169.447 117.88 170.692 118.329C171.162 118.499 171.382 119.132 171.181 119.738C170.944 120.446 171.074 120.576 171.546 120.105C172.524 119.127 173.821 126.866 172.923 128.319C171.99 129.827 172.745 132.401 173.891 131.62C174.552 131.17 174.954 131.634 175.268 133.207C175.512 134.43 175.313 135.525 174.826 135.642C174.338 135.758 173.486 136.163 172.931 136.54C172.252 137.003 171.477 136.532 170.564 135.099C169.102 132.808 168.308 132.639 167.225 134.39C166.694 135.248 166.298 134.981 165.49 133.218C164.914 131.961 163.983 130.708 163.42 130.435C161.615 129.554 153.517 131.338 153.804 132.553C154.103 133.818 158.759 134.475 159.915 133.416C161.336 132.113 161.524 133.139 160.156 134.737C159.145 135.918 159.21 136.142 161.228 138.427C162.69 140.081 164.091 140.836 165.607 140.787C166.966 140.742 167.781 141.122 167.695 141.759C167.512 143.107 170.332 143.191 171.154 141.862C171.909 140.64 174.201 142.347 175.486 145.088C176.522 147.299 180.489 148.329 181.714 146.706C182.315 145.91 182.584 145.865 182.741 146.53C182.869 147.073 183.488 147.112 184.299 146.627C185.038 146.184 185.946 146.126 186.318 146.496C187.376 147.553 189.053 146.823 188.616 145.496C188.159 144.108 190.066 141.806 191.13 142.463C191.527 142.707 191.424 143.343 190.902 143.876C190.219 144.573 190.228 144.783 190.934 144.625C193.007 144.161 195.643 139.943 195.738 136.942C195.792 135.168 196.299 133.768 196.942 133.616C198.173 133.325 198.158 132.076 196.918 131.664C196.481 131.519 196.052 131.869 195.964 132.442C195.856 133.151 195.698 133.118 195.471 132.342C195.288 131.712 195.49 130.315 195.921 129.235C196.421 127.98 196.391 127.346 195.838 127.476C195.363 127.589 195.022 127.22 195.081 126.655C195.141 126.091 195.727 125.597 196.384 125.558C197.828 125.471 198.548 124.056 198.858 120.701C199.048 118.647 198.827 118.084 197.649 117.634C196.366 117.143 196.378 117.037 197.752 116.67C200.843 115.845 201.437 112.136 198.695 110.777C197.46 110.165 197.438 109.855 198.502 108.009C199.161 106.866 199.344 105.812 198.91 105.668ZM195.726 102.815C195.176 102.278 194.719 102.276 194.541 102.811C194.381 103.29 194.806 103.756 195.487 103.848C196.915 104.04 196.927 103.988 195.726 102.815ZM176.274 116.629C175.703 116.542 176.089 116.269 177.132 116.023C178.175 115.776 178.642 115.847 178.171 116.18C177.699 116.515 176.845 116.716 176.274 116.629ZM169.432 105.561C169.143 105.383 169.464 104.86 170.144 104.398C171.128 103.732 171.236 103.797 170.67 104.722C170.277 105.362 169.72 105.739 169.432 105.561ZM157.571 82.4056C156.888 82.3134 156.298 82.104 156.26 81.9404C156.221 81.7767 156.701 81.5215 157.327 81.3736C157.953 81.2257 158.543 81.435 158.639 81.8389C158.734 82.242 158.254 82.4972 157.571 82.4056ZM158.002 86.561C157.34 86.4622 157.478 86.2401 158.353 85.9948C159.145 85.7732 159.635 85.8463 159.442 86.1574C159.25 86.4685 158.602 86.6505 158.002 86.561ZM37.1952 7.97543C35.9379 8.75268 35.8544 7.11863 37.1086 6.26372C37.78 5.8066 38.1674 5.89346 38.1132 6.49112C38.0647 7.02502 37.6523 7.69297 37.1952 7.97543Z" fill="white"/>
</svg>
